<svg viewBox="0 0 24 24" xmlns="http://www.w3.org/2000/svg">
  <path d="M14.6,1.6c1.9,0,3.4,1.5,3.4,3.4c0,0.6-0.2,1.2-0.5,1.7c0.7,0,1.4,0.1,2.1,0.2
    c1.3,0.1,2.3,1.1,2.5,2.4c0.2,1.7,0.3,3.5,0.3,5.2c0,1.7-0.1,3.5-0.3,5.2c-0.2,1.3-1.2,2.3-2.5,2.4c-2.5,0.2-5.1,0.4-7.6,0.4
    c-2.5,0-5-0.1-7.6-0.4C3.1,22,2.1,21,1.9,19.7c-0.4-3.5-0.4-7,0-10.4c0.2-1.3,1.2-2.3,2.5-2.4c0.7-0.1,1.4-0.1,2.1-0.2
    C6.3,6.1,6.1,5.5,6.1,4.9c0-1.9,1.5-3.4,3.4-3.4c1,0,1.9,0.5,2.6,1.2C12.6,2,13.5,1.6,14.6,1.6z M20.7,16.7l-17.5,0
    c0.1,0.9,0.1,1.9,0.3,2.8c0.1,0.6,0.5,1,1.1,1c4.9,0.5,9.9,0.5,14.8,0c0.3,0,0.5-0.1,0.7-0.3c0.2-0.2,0.3-0.4,0.4-0.7
    C20.6,18.5,20.7,17.6,20.7,16.7z M11.1,8.1l-3.3,3.3c-0.2,0.1-0.4,0.2-0.6,0.2c-0.3,0-0.6-0.2-0.7-0.5c-0.1-0.3-0.1-0.6,0.2-0.9
    l2.1-2.1c-0.1,0-0.1,0-0.2-0.1l0.1,0c-1.3,0.1-2.7,0.1-4,0.3c-0.6,0.1-1,0.5-1.1,1c-0.2,1.9-0.3,3.8-0.3,5.6l17.6,0
    c0-0.2,0-0.4,0-0.6c0-1.7-0.1-3.3-0.3-5c0-0.3-0.2-0.5-0.4-0.7c-0.2-0.2-0.4-0.3-0.7-0.3c-1.3-0.1-2.6-0.2-3.9-0.3
    c-0.1,0-0.1,0-0.2,0.1l2.1,2.1c0.2,0.2,0.3,0.6,0.2,0.9s-0.4,0.5-0.7,0.5c-0.2,0-0.4-0.1-0.6-0.2l-3.3-3.3l-0.5,0
    C12,8,11.5,8.1,11.1,8.1z M9.4,3.2c-1,0-1.8,0.8-1.8,1.8s0.8,1.8,1.8,1.8c0.2,0,0.5,0,0.7-0.1c0,0,0,0,0.1,0
    c0.2-0.1,0.3-0.2,0.5-0.3l0,0l0,0c0.3-0.3,0.5-0.7,0.5-1.2l0,0l0,0C11.2,3.9,10.4,3.2,9.4,3.2z M14.6,3.2c-0.7,0-1.4,0.4-1.6,1.1
    c-0.3,0.7-0.1,1.4,0.4,1.9l0,0l0,0c0.2,0.2,0.3,0.3,0.5,0.4c0,0,0,0,0.1,0c0.4,0.2,0.9,0.2,1.3,0c0.7-0.3,1.1-0.9,1.1-1.6
    C16.3,3.9,15.5,3.2,14.6,3.2z"/>
</svg>
