<svg viewBox="0 0 24 24" xmlns="http://www.w3.org/2000/svg">
  <path d="M14,5.2c0.8,0.1,1.3,0.7,1.4,1.5C16.3,6.7,17.1,6.8,18,7c0.8,0.1,1.4,0.7,1.6,1.5l0,0.2
    c0.5,2.8,0.5,5.6,0,8.4l0,0.2c-0.1,0.8-0.8,1.4-1.6,1.5c-2,0.3-4,0.4-6,0.4c-2,0-4-0.1-6-0.4c-0.8-0.1-1.4-0.7-1.6-1.5l-0.1-0.3
    C3.9,14,3.9,11.2,4.4,8.4C4.6,7.6,5.2,7.1,6,7c0.8-0.1,1.7-0.2,2.6-0.3C8.7,5.9,9.2,5.3,10,5.2C11.3,4.9,12.7,4.9,14,5.2z M12,6.4
    c-0.6,0-1.2,0.1-1.7,0.2c-0.1,0-0.2,0.1-0.2,0.3C10,7.5,9.5,8,8.8,8.1C8,8.1,7.1,8.2,6.2,8.3C6,8.4,5.9,8.5,5.9,8.7
    c-0.5,2.6-0.5,5.3-0.1,7.9l0.1,0.3c0,0.2,0.2,0.3,0.3,0.3c3.8,0.5,7.7,0.5,11.6,0c0.2,0,0.3-0.2,0.4-0.3l0-0.2
    c0.5-2.4,0.5-4.9,0.1-7.4l-0.1-0.5l0-0.2c0-0.2-0.2-0.3-0.4-0.3c-0.9-0.1-1.7-0.2-2.6-0.3C14.5,8,14,7.5,14,6.8
    c0-0.1-0.1-0.2-0.2-0.3C13.2,6.5,12.6,6.4,12,6.4z M12,9.5c1.8,0,3.2,1.4,3.2,3.1c0,1.7-1.4,3.1-3.2,3.1c-1.8,0-3.2-1.4-3.2-3.1
    S10.2,9.5,12,9.5z M12,10.9c-1,0-1.7,0.7-1.7,1.7c0,0.9,0.8,1.7,1.7,1.7c1,0,1.7-0.7,1.7-1.7C13.7,11.7,13,10.9,12,10.9z M16.7,9.3
    c0.3,0.2,0.5,0.5,0.4,0.8c-0.1,0.4-0.4,0.6-0.8,0.6c0,0-0.1,0-0.1,0c-0.2,0-0.4-0.1-0.5-0.3c-0.2-0.3-0.2-0.7,0.1-0.9
    S16.4,9.2,16.7,9.3z"/>
</svg>
