<svg viewBox="0 0 24 24" xmlns="http://www.w3.org/2000/svg">
  <path d="M12,20c-2.4,0-4.9-0.1-7.3-0.3c-1.3-0.1-2.3-1.1-2.4-2.3c-0.4-3.2-0.4-6.5,0-9.8
    c0.2-1.2,1.2-2.2,2.4-2.3c4.8-0.4,9.7-0.4,14.5,0c1.3,0.1,2.3,1.1,2.4,2.3c0.4,3.2,0.4,6.5,0,9.8c-0.2,1.2-1.2,2.2-2.4,2.3
    C16.9,19.9,14.4,20,12,20z M12,6.5c-2.4,0-4.8,0.1-7.1,0.3c-0.5,0-1,0.5-1,1c-0.4,3.1-0.4,6.3,0,9.4c0.1,0.5,0.5,0.9,1,1
    c4.7,0.4,9.5,0.4,14.2,0l0,0c0.5,0,1-0.5,1-1c0.4-3.1,0.4-6.3,0-9.4c-0.1-0.5-0.5-0.9-1-1C16.8,6.6,14.4,6.5,12,6.5z M21.2,11.9H2.8
    c-0.3,0-0.6-0.1-0.7-0.4c-0.1-0.3-0.1-0.6,0-0.8c0.1-0.2,0.4-0.4,0.7-0.4h18.4c0.4,0,0.6,0.3,0.6,0.8S21.6,11.9,21.2,11.9z"/>
</svg>
