<?xml version="1.0" encoding="UTF-8" standalone="no"?>
<svg
   viewBox="0 0 24 24"
   version="1.1"
   id="svg13"
   xmlns="http://www.w3.org/2000/svg"
   color="currentColor">
  <defs
     id="defs17" />
  <path
     id="path134"
     d="M 7.0117188 6.2753906 C 6.8242187 6.2753906 6.65 6.35 6.5 6.5 C 6.2 6.8 6.2 7.2996094 6.5 7.5996094 L 10.900391 12 L 6.4003906 16.5 C 6.1003906 16.8 6.1003906 17.299609 6.4003906 17.599609 C 6.7003906 17.899609 7.2 17.899609 7.5 17.599609 L 12 13.099609 L 16.5 17.599609 C 16.8 17.899609 17.299609 17.899609 17.599609 17.599609 C 17.899609 17.299609 17.899609 16.8 17.599609 16.5 L 13.099609 12 L 17.5 7.5996094 C 17.8 7.2996094 17.8 6.8 17.5 6.5 C 17.2 6.2 16.800391 6.2 16.400391 6.5 L 12 10.900391 L 7.5996094 6.5 C 7.3996094 6.35 7.1992188 6.2753906 7.0117188 6.2753906 z " />
</svg>
