<svg viewBox="0 0 24 24" xmlns="http://www.w3.org/2000/svg">
  <path d="M17.5,3.3c0.8,0.1,1.6,0.5,2.2,1.1c0.6,0.6,1,1.4,1,2.2C20.9,8.5,21,10.3,21,12
    c0,1.7-0.1,3.5-0.3,5.3c-0.1,0.8-0.4,1.6-1,2.3c-0.6,0.6-1.4,1-2.2,1.1c-1.8,0.2-3.7,0.3-5.6,0.3c-1.9,0-3.7-0.1-5.5-0.3
    c-0.8-0.1-1.5-0.5-2.1-1c0,0-0.1-0.1-0.1-0.1c-0.6-0.6-1-1.4-1-2.2c0-0.4-0.1-0.9-0.1-1.3l0-0.1c0-0.2,0.1-0.5,0.3-0.6
    c0.2-0.1,0.5-0.2,0.7-0.1c0.2,0.1,0.4,0.3,0.4,0.6l0,0.1c0,0.4,0.1,0.9,0.1,1.3c0,0.3,0.1,0.7,0.3,0.9c0,0,0.1,0.1,0.1,0.1
    c0.1,0.1,0.2,0.2,0.3,0.3C5.5,19,6,19.2,6.6,19.3c1.8,0.2,3.6,0.3,5.4,0.3c1.8,0,3.6-0.1,5.4-0.3c0.5-0.1,1-0.3,1.4-0.7
    c0.4-0.4,0.6-0.9,0.7-1.4c0.2-1.8,0.3-3.5,0.3-5.2c0-1.7-0.1-3.4-0.3-5.2c0-0.5-0.3-1-0.7-1.4c-0.4-0.4-0.9-0.6-1.4-0.7
    c-3.6-0.4-7.2-0.4-10.8,0C6,4.8,5.5,5,5.2,5.4C5.1,5.5,5,5.6,4.9,5.8L4.8,5.8c-0.2,0.3-0.3,0.6-0.3,1l0,0.1c0,0.5-0.1,0.9-0.1,1.4
    C4.4,8.7,4.1,9,3.7,9c0,0,0,0-0.1,0C3.5,9,3.3,8.9,3.2,8.7C3,8.6,3,8.4,3,8.2c0-0.5,0.1-0.9,0.1-1.4l0-0.1c0.1-0.8,0.4-1.6,1-2.3
    c0,0,0.1-0.1,0.1-0.1L4.2,4.4c0.6-0.6,1.4-1,2.2-1.1C10.1,2.9,13.8,2.9,17.5,3.3z M12.3,8.6l2.9,2.9c0.1,0.1,0.2,0.3,0.2,0.5
    s-0.1,0.4-0.2,0.5l-2.9,2.9c-0.1,0.1-0.3,0.2-0.5,0.2c-0.3,0-0.5-0.2-0.6-0.4c-0.1-0.3,0-0.6,0.2-0.8l1.6-1.7l-9.3,0
    c-0.4,0-0.7-0.3-0.7-0.7s0.3-0.7,0.7-0.7l9.4,0l-1.8-1.8c-0.3-0.3-0.3-0.7,0-1C11.5,8.3,12,8.3,12.3,8.6z"/>
</svg>
