<svg viewBox="0 0 24 24" xmlns="http://www.w3.org/2000/svg">
  <path d="M12,3c0.4,0,0.7,0.3,0.7,0.6l0,0.7c0.5,0,1,0.1,1.4,0.2c1.9,0.5,3.3,2,3.3,3.7
    C17.4,8.7,17,9,16.6,9s-0.7-0.3-0.7-0.6c0-1.2-0.9-2.2-2.2-2.6c-0.3-0.1-0.6-0.1-1-0.2l0,5.9l1.2,0.2c2.1,0.4,3.6,2,3.7,3.8
    c0,1.7-1.3,3.3-3.3,3.8l-0.1,0c-0.4,0.1-0.9,0.2-1.4,0.2l0,0.7c0,0.3-0.3,0.6-0.7,0.6c-0.4,0-0.7-0.3-0.7-0.6l0-0.7
    c-0.5,0-0.9-0.1-1.4-0.2l-0.1,0c-2-0.5-3.3-2-3.3-3.8c0-0.3,0.3-0.6,0.7-0.6S8,15.3,8,15.6c0,1.2,0.9,2.2,2.3,2.6l0.1,0
    c0.3,0.1,0.6,0.1,0.9,0.2l0-5.8l-1.1-0.2c-2.1-0.4-3.6-2-3.7-3.8l0-0.2c0-1.7,1.3-3.2,3.3-3.7c0.5-0.1,1-0.2,1.4-0.2l0-0.7
    C11.3,3.3,11.6,3,12,3z M12.7,12.8l0,5.5c0.3,0,0.6-0.1,0.9-0.2l0.1,0c1.3-0.3,2.3-1.4,2.3-2.6c0-1.3-1-2.3-2.5-2.6L12.7,12.8z
    M10.3,5.8C9,6.1,8.1,7.2,8.1,8.4l0,0.2c0,1.3,1,2.3,2.5,2.6l0.8,0.1l0-5.7C11,5.7,10.7,5.7,10.3,5.8z"/>
</svg>
