<svg viewBox="0 0 24 24" xmlns="http://www.w3.org/2000/svg">
  <path d="M11.9,3C15,3,17.7,5.4,18,8.5c0,0.4-0.2,0.8-0.6,0.8c-0.4,0-0.8-0.2-0.8-0.6
    c-0.2-1.7-1.3-3.1-2.8-3.8s-3.3-0.4-4.7,0.6C8.3,6.1,7.7,7,7.4,8C7.3,8.4,7.3,8.7,7.2,9.1l4.6,0c0.4,0,0.7,0.3,0.7,0.7
    s-0.3,0.7-0.7,0.7l-4.8,0c-0.1,0.9-0.1,1.9,0,2.8l4.8,0c0.4,0,0.7,0.3,0.7,0.7c0,0.4-0.3,0.7-0.7,0.7l-4.6,0
    c0.1,0.4,0.1,0.7,0.2,1.1c0.5,2.1,2.4,3.5,4.5,3.5c2.4,0,4.4-1.8,4.6-4.2c0-0.4,0.4-0.7,0.8-0.7c0.2,0,0.4,0.1,0.5,0.3
    c0.1,0.2,0.2,0.3,0.2,0.5c-0.3,3.1-3,5.5-6.1,5.5c-2.8,0-5.2-1.9-5.9-4.7c-0.1-0.5-0.2-1-0.3-1.5l-2,0c-0.4,0-0.7-0.3-0.7-0.7
    c0-0.4,0.3-0.7,0.7-0.7l1.8,0c-0.1-0.9-0.1-1.9,0-2.8l-1.8,0C3.3,10.6,3,10.3,3,9.8s0.3-0.7,0.7-0.7l2,0c0.1-0.5,0.2-1,0.3-1.5
    C6.7,4.9,9.1,3,11.9,3z"/>
</svg>
