<svg viewBox="0 0 24 24" xmlns="http://www.w3.org/2000/svg">
  <path d="M11.9,3c0.4,0,0.7,0.3,0.7,0.7s-0.3,0.7-0.7,0.7c-1.8,0-3.5,0.1-5.3,0.3C6.1,4.8,5.6,5,5.3,5.4
    C4.9,5.8,4.7,6.3,4.6,6.8C4.5,8.5,4.4,10.2,4.4,12c0,1.8,0.1,3.5,0.2,5.2c0.1,1.1,0.9,2,2,2.1c3.5,0.4,7.1,0.4,10.7,0
    c1.1-0.1,1.9-1,2-2.1c0.2-1.7,0.2-3.4,0.2-5.1c0-0.3,0.1-0.5,0.3-0.6c0.2-0.1,0.5-0.1,0.7,0c0.2,0.1,0.3,0.4,0.3,0.6
    c0,1.7-0.1,3.5-0.3,5.2c-0.2,1.7-1.5,3.1-3.2,3.3C15.7,20.9,13.8,21,12,21c-1.8,0-3.7-0.1-5.5-0.3c-1.7-0.2-3.1-1.6-3.2-3.3
    C3.1,15.6,3,13.8,3,12c0-1.8,0.1-3.6,0.3-5.3c0.2-1.7,1.5-3.1,3.2-3.3C8.3,3.1,10.1,3,11.9,3z M20.3,3C20.7,3,21,3.3,21,3.7v4.8
    c0,0.4-0.3,0.7-0.7,0.7s-0.7-0.3-0.7-0.7l0-3l-7.2,7.3c-0.1,0.1-0.3,0.2-0.5,0.2c-0.3,0-0.5-0.2-0.6-0.4s0-0.6,0.2-0.8l7.3-7.4
    l-3.2,0c-0.4,0-0.7-0.3-0.7-0.7S15.1,3,15.5,3H20.3z"/>
</svg>
