<svg viewBox="0 0 24 24" xmlns="http://www.w3.org/2000/svg">
  <path d="M11.9,19c-3.7,0-7.2-1.5-9.7-4.2C1.4,14,1,13,1,11.9C1,10.8,1.5,9.7,2.2,9C4.9,6.4,8.4,5,12.1,5
    c3.7,0,7.2,1.6,9.7,4.2c1.6,1.6,1.6,4.3-0.1,5.9C19.1,17.6,15.6,19,11.9,19z M12.1,6.7c-3.2,0-6.3,1.2-8.6,3.5
    c-0.5,0.5-0.7,1.1-0.7,1.7c0,0.6,0.2,1.3,0.7,1.7c4.7,4.8,12.4,4.9,17.2,0.2c1-0.9,1-2.5,0-3.5C18.4,8.1,15.3,6.7,12.1,6.7L12.1,6.7
    z M11.9,19c-3.4,0-6.1-3.2-6-7.1S8.7,5,12.1,5c3.4,0,6.1,3.2,6,7.1S15.3,19,11.9,19z M12.1,6.7c-2.4,0-4.4,2.3-4.5,5.2
    s1.9,5.3,4.3,5.4s4.4-2.3,4.5-5.2S14.5,6.7,12.1,6.7L12.1,6.7z M13.6,12.3c0.2-0.9-0.4-1.8-1.3-2c-0.9-0.2-1.8,0.4-2,1.3
    c-0.2,0.9,0.4,1.8,1.3,2S13.4,13.2,13.6,12.3z"/>
</svg>
