<svg viewBox="0 0 24 24" xmlns="http://www.w3.org/2000/svg">
  <path d="M14.1,2.8c1.4,0.9,2.3,2.5,2.3,4.2c0,0.4-0.3,0.7-0.7,0.7S14.9,7.4,14.9,7c0-1.2-0.6-2.3-1.6-3
    S11,3.3,9.9,3.7C8.3,4.5,7.5,6.4,8.1,8l1.3,3.3c0,0.1,0.1,0.2,0.1,0.3l5.7,0c0.5,0,0.8,0.4,0.8,0.8c0,0.5-0.4,0.8-0.8,0.8l-5.3,0
    c0.1,1.6-0.4,3.2-1.5,4.5l-0.6,0.7h6c1.5,0,2.8-1.2,2.8-2.8c0-0.4,0.3-0.7,0.7-0.7s0.7,0.3,0.7,0.7c0,2.3-1.9,4.2-4.2,4.2H7.2
    c-0.5,0-0.9-0.3-1.1-0.8c-0.2-0.5-0.1-1,0.3-1.3l0.9-1c0.9-1,1.2-2.3,1.1-3.6l-3.1,0c-0.5,0-0.8-0.4-0.8-0.8c0-0.5,0.4-0.8,0.8-0.8
    l2.6,0L6.7,8.5C5.9,6.1,7,3.5,9.3,2.4C10.9,1.7,12.7,1.9,14.1,2.8z"/>
</svg>
