<svg viewBox="0 0 24 24" xmlns="http://www.w3.org/2000/svg">
  <path d="M10.6,12.4c2.7,0,8,1.3,8,4.4v1.4c0,1.1-0.8,1.9-1.9,2c-2,0.2-4.1,0.3-6.1,0.3c-2,0-4.1-0.1-6.1-0.3
    c-1.1-0.1-1.9-1-1.9-2v-1.4C2.6,13.7,7.9,12.4,10.6,12.4z M10.6,14c-2.5,0-6.4,1.3-6.4,2.8v1.4c0,0.2,0.2,0.4,0.4,0.5
    c4,0.4,8,0.4,11.9,0c0.2,0,0.4-0.2,0.4-0.5v-1.4C17,15.2,13.1,14,10.6,14z M20,6.8c0.4,0,0.8,0.4,0.8,0.8l0,1.8l1.8,0
    c0.4,0,0.8,0.4,0.8,0.8c0,0.4-0.4,0.8-0.8,0.8l-1.8,0l0,1.8c0,0.2-0.1,0.4-0.2,0.6s-0.4,0.2-0.6,0.2c-0.2,0-0.4-0.1-0.6-0.2
    c-0.2-0.2-0.2-0.4-0.2-0.6l0-1.8l-1.8,0c-0.4,0-0.8-0.4-0.8-0.8c0-0.4,0.4-0.8,0.8-0.8l1.8,0l0-1.8C19.2,7.2,19.5,6.8,20,6.8z
    M12.1,3.8c1.5,0.6,2.4,2,2.4,3.6c0,2.1-1.7,3.9-3.9,3.9c-1.6,0-3-0.9-3.6-2.4S6.7,5.7,7.8,4.6C8.9,3.5,10.6,3.2,12.1,3.8z
    M10.6,5.1c-0.9,0-1.8,0.5-2.1,1.4C8.1,7.3,8.3,8.3,9,9c0.7,0.7,1.6,0.9,2.5,0.5c0.9-0.4,1.4-1.2,1.4-2.1
    C12.8,6.1,11.8,5.1,10.6,5.1z"/>
</svg>
