<svg viewBox="0 0 24 24" xmlns="http://www.w3.org/2000/svg">
  <path d="M12,21c-0.7,0-1.3-0.2-1.8-0.7l-0.1-0.1c-5-4.6-8.3-7.6-8.1-11.5c0.1-1.9,1-3.6,2.5-4.6
    C6.8,2.5,9.9,2.7,12,4.6c2.1-1.9,5.2-2.2,7.5-0.6C21,5.1,21.9,6.8,22,8.7c0.1,4-3.1,7-8.1,11.5l-0.1,0.1l-0.1,0.1
    C13.3,20.8,12.7,21,12,21z M7.8,4.6C7,4.6,6.1,4.8,5.4,5.3c-1.1,0.8-1.8,2-1.8,3.4c-0.1,3.3,3,6.1,7.6,10.3l0.1,0.1
    c0.4,0.4,1,0.4,1.4,0l0,0l0.1-0.1c4.7-4.3,7.8-7.1,7.6-10.4c-0.1-1.4-0.7-2.6-1.8-3.4c-1.9-1.3-4.6-0.9-6.1,0.9
    c-0.2,0.2-0.4,0.3-0.6,0.3s-0.4-0.1-0.6-0.3C10.5,5.2,9.2,4.6,7.8,4.6z"/>
</svg>
