<svg viewBox="0 0 24 24" xmlns="http://www.w3.org/2000/svg">
  <path d="M14.4,2.2c1.1,0.2,1.9,1.2,1.9,2.3l0,3.3c0.3,0,0.7,0.1,1,0.1c1.3,0.1,2.3,1.1,2.4,2.4
    c0.4,2.9,0.4,5.8,0,8.6l0,0.4c-0.1,1.2-1.1,2.2-2.2,2.4l-0.2,0C15.5,21.9,13.8,22,12,22c-1.8,0-3.5-0.1-5.3-0.3
    c-1.3-0.1-2.3-1.1-2.4-2.4l0-0.4c-0.3-2.9-0.3-5.8,0-8.6C4.4,9,5.4,8.1,6.7,7.9c0.4,0,0.7-0.1,1.1-0.1l0-3.3c0-1.1,0.8-2.1,1.9-2.3
    C11.2,1.9,12.8,1.9,14.4,2.2z M12,9.2c-1.1,0-2.2,0-3.3,0.1c-0.1,0-0.1,0-0.2,0l0,0c-0.5,0-1.1,0.1-1.6,0.1c-0.5,0.1-1,0.5-1.1,1
    c-0.4,2.7-0.4,5.5,0,8.3l0,0.4c0.1,0.5,0.5,1,1,1c3.4,0.4,6.8,0.4,10.3,0c0.5-0.1,1-0.5,1-1l0-0.4c0.3-2.7,0.3-5.5,0-8.3
    c-0.1-0.5-0.5-1-1-1c-0.5-0.1-1.1-0.1-1.6-0.1l0,0c-0.1,0-0.1,0-0.2,0C14.2,9.2,13.1,9.2,12,9.2z M12.6,12.3
    c0.6,0.2,0.9,0.8,0.9,1.4c0,0.5-0.3,1-0.7,1.3l0,1.8c0,0.4-0.3,0.8-0.8,0.8c-0.4,0-0.8-0.3-0.8-0.8l0-1.8c-0.3-0.2-0.5-0.4-0.6-0.7
    c-0.2-0.6-0.1-1.2,0.3-1.6C11.4,12.2,12,12.1,12.6,12.3z M9.9,3.8C9.6,3.8,9.3,4.2,9.3,4.5l0,3.2c1.8-0.1,3.6-0.1,5.4,0l0-3.2
    c0-0.4-0.3-0.7-0.6-0.8C12.7,3.5,11.3,3.5,9.9,3.8z"/>
</svg>
