<svg xmlns="http://www.w3.org/2000/svg" viewBox="0 0 30 28">
  <path fill-rule="evenodd" clip-rule="evenodd" d="M18.7 8.967c-.27.124-2.605 1.19-5.188 2.357-2.584 1.18-4.724 2.154-4.757 2.154-.032 0 .184-.238.487-.533.519-.51 1.448-1.394 8.54-8.014a548.254 548.254 0 0 0 3.08-2.89C21.067 1.78 23.067 0 23.142 0c.055 0 .098 1.1.098 2.55v2.551l-2.032 1.814C20.094 7.924 18.97 8.842 18.7 8.967Zm-7.858.952-3.319 1.473-1.184.526a696.315 696.315 0 0 0-4.058 1.81c-1.049.476-1.99.873-2.097.884C.01 14.623 0 14.43 0 12.152V9.669l.27-.124c.314-.148 4.41-1.961 9.08-4.013 1.195-.53 2.764-1.22 4.126-1.817l1.927-.847.587-.258C20.26.734 20.897.455 20.928.487c.021.023-.487.51-1.125 1.1-.626.59-2 1.87-3.048 2.834-1.037.975-2.8 2.607-3.902 3.627l-2.01 1.87Zm15.387 5.35c-.944.875-1.911 1.774-2.769 2.628 0 0-7.467 7.307-8.323 8.048-.468.406-1.05.978-1.493 1.416-.367.361-.64.63-.68.638-.142.018-.15-.282-.15-3.829l-.06-2.225.221-.194c.065-.057.334-.321.762-.74 1.28-1.25 3.97-3.882 6.805-6.515.706-.655 1.66-1.509 2.588-2.34.985-.882 1.943-1.739 2.546-2.307 3.73-3.514 4.189-3.89 4.215-3.837.018.036.109.55.109 1.626 0 1.077 0 2.097-.108 4.024-.848.992-2.227 2.273-3.663 3.606ZM9.945 19.315c2.672-1.165 7.188-3.162 7.188-3.162L27.628 6.42c.073-.068-.005-.187-.096-.146l-1.986.89c-4.207 1.886-11.557 5.179-16.553 7.413L6.27 15.79v2.539c0 1.383.033 2.528.076 2.517.054 0 1.665-.692 3.6-1.53Z" />
</svg>
