<svg viewBox="0 0 142 28" xmlns="http://www.w3.org/2000/svg">
  <path fill-rule="evenodd" clip-rule="evenodd" d="M46.116 23.5856L48.8508 10.7956L51.3646 23.5856H54.8453L62.5801 10.6298L59.8177 23.5856H64.0994L68.2707 4H61.9171L54.2376 17.2044L51.558 4H46.1436L42 23.5856H46.116ZM74.7348 24C79.3204 24 82.4972 20.2155 82.4972 15.8508C82.4972 12.232 80.0111 9.44199 76.116 9.44199C71.9448 9.44199 68.3536 12.674 68.3536 17.5635C68.3536 21.2099 70.9227 24 74.7348 24ZM72.4972 17.3702C72.4972 19.1381 73.5746 20.1602 75.0111 20.1602C76.4475 20.1602 78.326 18.8895 78.326 16.0442C78.326 14.221 77.3039 13.3094 75.8122 13.2818C73.7956 13.2818 72.4972 15.2707 72.4972 17.3702ZM90.4807 23.5856L98.3812 9.85635H93.7127L89.2376 18.4199L88.1878 9.85635H83.8508L86.2818 23.5856H90.4807ZM110.287 20.4641C109.403 22.2597 107.47 24 104.099 24C100.646 24 97.7459 21.4033 97.7459 17.6188C97.7459 12.5635 101.392 9.44199 105.039 9.44199C108.906 9.44199 111.227 11.9282 111.227 15.326C111.227 15.9613 111.116 16.9558 110.84 17.7845L101.586 17.8122C101.586 19.2762 102.525 20.547 104.459 20.547C105.646 20.547 106.586 19.884 107.028 19L110.287 20.4641ZM107.359 15.0773H101.972C102.414 13.7238 103.354 12.7845 105.011 12.7845C106.779 12.7845 107.359 14 107.359 14.884V15.0773ZM118.05 17.3149L116.696 23.5856H112.497L114.928 12.1492C115.149 11.0442 115.177 10.2983 115.177 9.85635H119.265L119.265 9.87136L119.265 9.93646C119.262 10.1678 119.248 10.8363 119.155 11.3481C120.039 10.1326 121.282 9.74586 122.58 9.74586C123.215 9.74586 123.768 9.88398 124.017 9.99447L123.133 14.0829C122.58 13.9171 122.221 13.8343 121.475 13.8343C120.066 13.8343 118.63 14.6354 118.05 17.3149Z"/>
  <path fill-rule="evenodd" clip-rule="evenodd" d="M18.7 8.96658C18.4298 9.09128 16.095 10.1568 13.5116 11.3244C10.9281 12.5033 8.78791 13.4782 8.75549 13.4782C8.72306 13.4782 8.93924 13.2402 9.2419 12.9454C9.76075 12.4353 10.6903 11.5511 17.7812 4.93105C19.4458 3.37806 20.8294 2.07444 20.8618 2.04044C21.0672 1.77971 23.0669 0 23.1426 0C23.1966 0 23.2399 1.09957 23.2399 2.55055V5.10109L21.2077 6.91481C20.0944 7.92369 18.9702 8.84189 18.7 8.96658ZM10.8417 9.91879L7.52323 11.3924L6.33888 11.9182L6.33875 11.9182C4.77118 12.6138 3.11347 13.3495 2.28075 13.7276C1.23226 14.2037 0.29185 14.6005 0.183758 14.6118C0.0108099 14.6231 0 14.4304 0 12.1519V9.6694L0.270231 9.54471C0.583699 9.39734 4.6804 7.58362 9.35 5.53185C10.5447 5.00119 12.1142 4.3124 13.476 3.71473C14.2087 3.39315 14.8813 3.09795 15.4032 2.86795L15.9904 2.60997L15.9905 2.6099L15.9906 2.60989C20.2598 0.734205 20.8956 0.454869 20.9267 0.487438C20.9483 0.510109 20.4403 0.997547 19.8025 1.58701C19.1756 2.17647 17.8028 3.45741 16.7543 4.42094C15.7166 5.39582 13.9547 7.02817 12.8522 8.04839L10.8417 9.91879ZM26.229 15.2681L26.229 15.2681C25.2855 16.1442 24.3177 17.0429 23.4604 17.897C23.4604 17.897 15.993 25.2043 15.1373 25.9454C14.6687 26.3512 14.0879 26.9232 13.6437 27.3606L13.6436 27.3606L13.6436 27.3607L13.6436 27.3607C13.2767 27.722 13.0032 27.9913 12.9633 27.9993C12.8221 28.017 12.8133 27.717 12.8133 24.1701L12.7549 21.9453L12.9754 21.7512C13.0396 21.6937 13.3094 21.4298 13.7373 21.0114C15.0161 19.7609 17.7072 17.1293 20.5419 14.4963C21.2478 13.8406 22.2012 12.9873 23.1298 12.1563L23.1298 12.1563C24.1152 11.2744 25.0726 10.4175 25.6763 9.84862C29.4055 6.33454 29.8649 5.95942 29.8914 6.01236C29.909 6.04765 30 6.56125 30 7.63815C30 8.71505 30 9.73527 29.8919 11.6623C29.044 12.6542 27.6647 13.935 26.229 15.2681ZM9.94451 19.3161C12.6171 18.1507 17.1327 16.1535 17.1327 16.1535L27.6278 6.42089C27.7011 6.35287 27.6232 6.23431 27.5319 6.27524L25.5456 7.16563C21.3389 9.05099 13.9887 12.344 8.99329 14.5778L6.26936 15.7907V18.3299C6.26936 19.7129 6.30179 20.8578 6.34503 20.8465C6.39907 20.8465 8.00965 20.155 9.94451 19.3161Z"/>
</svg>
