<svg viewBox="0 0 16 16" xmlns="http://www.w3.org/2000/svg">
  <path fill-rule="evenodd" clip-rule="evenodd" d="M11.6,10.9L8,14.5l-3.6-3.7c-0.2-0.2-0.5-0.2-0.7,0s-0.2,0.5,0,0.7l3.9,3.9c0.1,0.1,0.3,0.2,0.4,0.1 c0.2,0,0.3,0,0.4-0.1l3.9-3.9c0.2-0.2,0.2-0.5,0-0.7C12.1,10.7,11.8,10.7,11.6,10.9z"/>
  <path fill-rule="evenodd" clip-rule="evenodd" d="M4.4,5.5L8,1.9l3.6,3.7c0.2,0.2,0.5,0.2,0.7,0c0.2-0.2,0.2-0.5,0-0.7L8.4,0.9C8.3,0.8,8.2,0.7,8,0.7 c-0.2,0-0.3,0-0.4,0.1L3.7,4.8C3.5,5,3.5,5.3,3.7,5.5C3.9,5.7,4.2,5.7,4.4,5.5z"/>
</svg>
