<svg viewBox="0 0 24 24" xmlns="http://www.w3.org/2000/svg">
	<path d="M12,22.4c-0.6,0-1.3-0.1-1.9-0.3C9.4,22,9,21.4,9,20.7c0-0.3-0.2-0.6-0.5-0.8
		c-0.5-0.2-1-0.5-1.5-0.9C6.7,18.8,6.3,18.8,6,19c-0.6,0.3-1.4,0.2-1.9-0.2c-0.9-0.9-1.6-2.1-1.9-3.3c-0.2-0.7,0.1-1.4,0.7-1.7
		c0.3-0.2,0.5-0.5,0.4-0.8c-0.1-0.6-0.1-1.2,0-1.7c0-0.3-0.1-0.7-0.4-0.9c-0.6-0.3-0.9-1-0.7-1.7c0.3-1.3,1-2.4,1.9-3.3
		C4.7,4.8,5.4,4.7,6,5C6.3,5.2,6.7,5.2,6.9,5c0.5-0.3,1-0.6,1.5-0.9C8.8,4,9,3.7,9,3.3C9,2.6,9.4,2,10.1,1.9c1.3-0.3,2.6-0.3,3.8,0
		C14.6,2,15,2.6,15,3.3c0,0.3,0.2,0.6,0.5,0.8c0.5,0.2,1,0.5,1.5,0.9C17.3,5.2,17.7,5.2,18,5c0.6-0.3,1.3-0.3,1.8,0.2
		c0.9,0.9,1.6,2.1,1.9,3.3c0.2,0.7-0.1,1.4-0.7,1.7c-0.3,0.2-0.5,0.5-0.4,0.8c0.1,0.6,0.1,1.2,0,1.7c0,0.3,0.1,0.7,0.4,0.9
		c0.6,0.3,0.9,1,0.7,1.7c-0.3,1.2-1,2.4-1.9,3.3c-0.5,0.5-1.2,0.6-1.8,0.2c-0.3-0.2-0.7-0.1-0.9,0.1c-0.5,0.3-1,0.6-1.5,0.9
		C15.2,20,15,20.3,15,20.7c0,0.7-0.4,1.3-1.1,1.5h0C13.3,22.3,12.6,22.4,12,22.4L12,22.4z M10.6,20.6c0.9,0.2,1.9,0.2,2.8,0
		c0-0.9,0.6-1.8,1.5-2.2c0.4-0.2,0.9-0.4,1.2-0.7c0.8-0.6,1.8-0.6,2.7-0.2c0.6-0.7,1.1-1.6,1.4-2.5c-0.8-0.5-1.3-1.4-1.2-2.4
		c0.1-0.5,0.1-0.9,0-1.4c-0.1-0.9,0.3-1.9,1.2-2.4c-0.3-0.9-0.8-1.8-1.4-2.5c-0.8,0.4-1.9,0.4-2.6-0.2c-0.4-0.3-0.8-0.5-1.2-0.7
		c-0.9-0.4-1.4-1.2-1.5-2.2c-0.9-0.2-1.9-0.2-2.8,0c0,0.9-0.6,1.8-1.5,2.2C8.7,5.8,8.3,6,7.9,6.3C7.1,6.8,6.1,6.9,5.2,6.5
		C4.6,7.1,4.1,8,3.8,8.9c0.8,0.5,1.3,1.4,1.2,2.4c-0.1,0.5-0.1,0.9,0,1.4c0.1,0.9-0.3,1.9-1.2,2.4c0.3,0.9,0.8,1.8,1.5,2.5
		c0.8-0.5,1.8-0.4,2.6,0.1c0.4,0.3,0.8,0.5,1.2,0.7C10,18.8,10.5,19.7,10.6,20.6L10.6,20.6z M12,16.2c-1.7,0-3.2-1-3.9-2.6
		C7.5,12,7.9,10.2,9.1,9.1c1.2-1.2,3-1.5,4.5-0.9c1.6,0.6,2.6,2.2,2.6,3.9C16.2,14.3,14.3,16.2,12,16.2z M12,9.4c-1,0-2,0.6-2.4,1.6
		c-0.4,1-0.2,2.1,0.6,2.8c0.7,0.7,1.8,1,2.8,0.6c1-0.4,1.6-1.3,1.6-2.4C14.6,10.6,13.4,9.4,12,9.4z"/>
</svg>
