<svg viewBox="0 0 24 24" xmlns="http://www.w3.org/2000/svg">
  <path d="M12,7.3c0.6,0,1.2,0.5,1.2,1.2S12.6,9.7,12,9.7s-1.2-0.5-1.2-1.2S11.4,7.3,12,7.3z M12.3,3.1
    l1.1,0.5c2.6,1.1,5.1,2.6,7.3,4.4c0.3,0.2,0.3,0.7,0.1,1c-0.2,0.3-0.7,0.4-1,0.1c-2.1-1.7-4.5-3.2-7-4.2L12,4.5l-0.9,0.4
    c-2.5,1-4.9,2.5-7,4.2C4,9.1,3.9,9.2,3.7,9.2C3.4,9.2,3.1,9,3,8.7C2.9,8.4,3,8.1,3.3,7.9C5.5,6.1,8,4.6,10.6,3.5l1.1-0.5
    C11.9,3,12.1,3,12.3,3.1z M5.5,17.4c-0.4,0-0.7-0.3-0.7-0.7v-4.1c0-0.3,0.1-0.5,0.3-0.6s0.5-0.1,0.7,0s0.3,0.4,0.3,0.6v4.1
    C6.1,17.1,5.8,17.4,5.5,17.4L5.5,17.4z M9.8,17.4c-0.4,0-0.7-0.3-0.7-0.7v-4.1c0-0.4,0.3-0.7,0.7-0.7c0.4,0,0.7,0.3,0.7,0.7v4.1
    C10.5,17.1,10.2,17.4,9.8,17.4z M14.2,17.4c-0.4,0-0.7-0.3-0.7-0.7v-4.1c0-0.4,0.3-0.7,0.7-0.7s0.7,0.3,0.7,0.7v4.1
    C14.9,17.1,14.6,17.4,14.2,17.4L14.2,17.4z M18.5,17.4c-0.4,0-0.7-0.3-0.7-0.7v-4.1c0-0.4,0.3-0.7,0.7-0.7s0.7,0.3,0.7,0.7v4.1
    C19.2,17.1,18.9,17.4,18.5,17.4z M19.8,21H4.2c-0.4,0-0.7-0.3-0.7-0.7c0-0.4,0.3-0.7,0.7-0.7h15.5c0.4,0,0.7,0.3,0.7,0.7
    C20.5,20.7,20.2,21,19.8,21z"/>
</svg>
