<svg viewBox="0 0 24 24" xmlns="http://www.w3.org/2000/svg">
  <path fill-rule="evenodd" clip-rule="evenodd" d="M12,19c-1.9,0-3.6-0.7-4.9-2.1C5.7,15.6,5,13.9,5,12s0.7-3.6,2.1-4.9C8.4,5.7,10.1,5,12,5s3.6,0.7,4.9,2.1
    C18.3,8.4,19,10.1,19,12s-0.7,3.6-2.1,4.9C15.6,18.3,13.9,19,12,19z M14.7,9.4l-3.6,3.6l-1.6-1.6c-0.2-0.2-0.4-0.2-0.6-0.2
    c-0.2,0-0.4,0.1-0.6,0.3c-0.2,0.2-0.3,0.4-0.3,0.6c0,0.2,0.1,0.5,0.2,0.6l2.2,2.2c0.2,0.2,0.4,0.3,0.6,0.3s0.5-0.1,0.6-0.3l4.2-4.2
    c0.1-0.1,0.2-0.2,0.2-0.3c0-0.1,0.1-0.2,0.1-0.3c0-0.1,0-0.2-0.1-0.3c0-0.1-0.1-0.2-0.2-0.3c-0.1-0.1-0.2-0.1-0.3-0.2
    c-0.1,0-0.2-0.1-0.3-0.1c-0.1,0-0.2,0-0.3,0.1C14.9,9.2,14.8,9.3,14.7,9.4L14.7,9.4z"/>
</svg>
