<svg viewBox="0 0 24 24" xmlns="http://www.w3.org/2000/svg">
  <path d="M12,18.7c0.4,0,0.8,0.3,0.8,0.8v1.8c0,0.4-0.3,0.8-0.8,0.8c-0.4,0-0.8-0.3-0.8-0.8v-1.8
    C11.2,19,11.6,18.7,12,18.7z M7.3,16.7c0.3,0.3,0.3,0.8,0,1.1L6,19.1c-0.1,0.1-0.3,0.2-0.5,0.2c-0.3,0-0.6-0.2-0.7-0.5
    c-0.1-0.3-0.1-0.6,0.2-0.8l1.3-1.3C6.5,16.4,7,16.4,7.3,16.7z M17.8,16.7l1.3,1.3c0.2,0.2,0.3,0.6,0.2,0.8c-0.1,0.3-0.4,0.5-0.7,0.5
    c-0.2,0-0.4-0.1-0.5-0.2l-1.3-1.3c-0.3-0.3-0.3-0.8,0-1.1C17,16.4,17.5,16.4,17.8,16.7z M14,7.3c1.9,0.8,3.2,2.7,3.2,4.7
    c0,2.8-2.3,5.1-5.1,5.1c-2.1,0-3.9-1.2-4.7-3.2S6.9,9.9,8.4,8.4S12.1,6.5,14,7.3z M4.6,11.2c0.3,0,0.5,0.1,0.7,0.4s0.1,0.5,0,0.8
    c-0.1,0.2-0.4,0.4-0.7,0.4H2.8c-0.3,0-0.5-0.1-0.7-0.4c-0.1-0.2-0.1-0.5,0-0.8s0.4-0.4,0.7-0.4H4.6z M21.2,11.2
    c0.4,0,0.8,0.3,0.8,0.8s-0.3,0.8-0.8,0.8h-1.8c-0.4,0-0.8-0.3-0.8-0.8s0.3-0.8,0.8-0.8H21.2z M19.1,4.9c0.3,0.3,0.3,0.8,0,1.1
    l-1.3,1.3c-0.1,0.1-0.3,0.2-0.5,0.2c-0.3,0-0.6-0.2-0.7-0.5c-0.1-0.3-0.1-0.6,0.2-0.8L18,4.9C18.3,4.6,18.8,4.6,19.1,4.9z M6,4.9
    l1.3,1.3C7.5,6.4,7.6,6.8,7.5,7C7.3,7.3,7.1,7.5,6.8,7.5c-0.2,0-0.4-0.1-0.5-0.2L4.9,6c-0.3-0.3-0.3-0.8,0-1.1S5.7,4.6,6,4.9z
    M12.4,2.1c0.2,0.1,0.4,0.4,0.4,0.7v1.8c0,0.4-0.3,0.8-0.8,0.8c-0.4,0-0.8-0.3-0.8-0.8V2.8c0-0.3,0.1-0.5,0.4-0.7
    C11.9,2,12.2,2,12.4,2.1z" />
</svg>
