<svg viewBox="0 0 24 24" xmlns="http://www.w3.org/2000/svg">
  <path d="M19.5,4.3c1.3,0.1,2.4,1.1,2.5,2.4c0.1,1,0.2,1.9,0.3,2.8c0,0.1,0,0.1,0,0.2l0,0.1l0,0.6
    c0,0.5,0,1,0,1.6c0,1.8-0.1,3.5-0.3,5.3c-0.2,1.3-1.2,2.3-2.5,2.4c-2.5,0.2-5.1,0.4-7.6,0.4c-2.5,0-5.1-0.1-7.6-0.4
    c-1.3-0.1-2.4-1.1-2.5-2.4c0-0.3-0.1-0.6-0.1-0.8c0-0.3,0.1-0.6,0.4-0.7c0.2-0.2,0.5-0.2,0.8-0.1c0.3,0.1,0.4,0.4,0.4,0.7
    c0,0.2,0,0.5,0.1,0.7c0.1,0.6,0.5,1,1.1,1.1c5,0.5,10,0.5,15,0c0.6,0,1-0.5,1.1-1.1c0.2-1.7,0.3-3.4,0.3-5.1c0-0.5,0-1,0-1.5l-5,0
    c-0.4,0-0.8-0.4-0.8-0.8c0-0.4,0.4-0.8,0.8-0.8l4.9,0c0-0.6-0.1-1.3-0.2-2c-0.1-0.6-0.5-1-1.1-1.1c-5-0.5-10-0.5-14.9,0
    c-0.6,0.1-1,0.5-1.1,1.1c0,0.3-0.1,0.6-0.1,0.9c0,0.4-0.4,0.8-0.9,0.7S1.6,8.1,1.7,7.7c0-0.3,0.1-0.6,0.1-1C1.9,5.4,3,4.4,4.3,4.3
    C9.4,3.8,14.5,3.8,19.5,4.3z M10.1,8.9l2.6,2.6c0.3,0.3,0.3,0.8,0,1.1l-2.6,2.6c-0.1,0.2-0.4,0.2-0.6,0.2c-0.3,0-0.6-0.2-0.7-0.5
    C8.8,14.6,8.8,14.2,9,14l1.2-1.2l-7.8,0c-0.4,0-0.8-0.4-0.8-0.8s0.4-0.8,0.8-0.8l7.9,0L9,10C8.8,9.8,8.7,9.5,8.8,9.2
    c0.1-0.3,0.3-0.5,0.6-0.6C9.7,8.6,9.9,8.7,10.1,8.9z"/>
</svg>
