<!-- Generated by IcoMoon.io -->
<svg version="1.1" xmlns="http://www.w3.org/2000/svg" width="3157" height="1024" viewBox="0 0 3157 1024">
<title></title>
<g id="icomoon-ignore">
</g>
<path fill="#000" d="M1371.831 1024h-262.498l164.186-981.333h262.481l-164.169 981.333z"></path>
<path fill="#000" d="M2304 42.202c-50.5-20.057-130.594-42.202-229.632-42.202-252.834 0-430.874 134.973-431.966 327.944-2.099 142.371 127.471 221.449 224.384 268.92 99.051 48.512 132.723 80.175 132.723 123.413-1.011 66.406-80.043 97.015-153.754 97.015-102.217 0-156.983-15.782-240.218-52.727l-33.711-15.838-35.827 222.515c60.049 27.388 170.679 51.691 285.534 52.757 268.638 0 443.533-132.885 445.602-338.526 1.024-112.841-67.396-199.305-214.903-269.959-89.545-45.356-144.384-75.938-144.384-122.345 1.050-42.188 46.383-85.399 147.465-85.399 83.23-2.116 144.384 17.912 190.711 37.955l23.155 10.526 34.82-214.050z"></path>
<path fill="#000" d="M2743.953 42.667h202.342l211.038 981.333h-242.21c0 0-23.701-112.755-31.211-147.209h-335.863c-9.711 26.086-54.903 147.209-54.903 147.209h-274.479l388.561-899.91c26.923-63.69 74.33-81.423 136.725-81.423zM2727.834 401.784c0 0-82.897 218.196-104.439 274.572h217.429c-10.756-49.062-60.292-283.966-60.292-283.966l-18.283-84.559c-7.697 21.775-18.833 51.711-26.342 71.903-5.090 13.687-8.512 22.896-8.073 22.050z"></path>
<path fill="#000" d="M883.324 42.667l-248.836 669.884-27.191-135.859c-46.007-156.765-190.287-327.087-351.296-411.776l227.925 859.085h268.693l399.381-981.333h-268.676z"></path>
<path fill="#000" d="M428.48 0h-424.141l-4.339 20.615c330.855 84.666 549.973 288.751 640 534.052l-92.203-468.904c-15.181-65.163-61.828-83.614-119.317-85.763z"></path>
</svg>
