<svg viewBox="0 0 24 24" xmlns="http://www.w3.org/2000/svg">
  <path d="M12,3c1.8,0,3.7,0.1,5.5,0.3c0.8,0.1,1.6,0.5,2.2,1.1C19.9,4.6,20,4.8,20.1,5
    c0,0.1,0.1,0.1,0.1,0.2c0.3,0.5,0.4,1,0.5,1.5L20,6.8h-0.7c-0.1-0.5-0.3-1-0.6-1.3c0,0-0.1-0.1-0.1-0.1l0.1,0.1
    c-0.4-0.4-0.9-0.6-1.4-0.7c-1.8-0.2-3.5-0.3-5.3-0.3c-1.8,0-3.6,0.1-5.3,0.3C6.1,4.8,5.7,5,5.3,5.4C4.9,5.8,4.7,6.3,4.6,6.8
    C4.5,8.6,4.4,10.3,4.4,12c0,1.7,0.1,3.4,0.3,5.2c0,0.5,0.3,1,0.6,1.4c0.4,0.4,0.9,0.6,1.4,0.7c3.5,0.4,7.1,0.4,10.7,0
    c0.5-0.1,0.9-0.2,1.2-0.6c0-0.1,0.1-0.1,0.1-0.1c0.4-0.4,0.6-0.8,0.6-1.4c0-0.2,0.1-0.4,0.2-0.5c0.1-0.1,0.3-0.2,0.5-0.2
    c0.2,0,0.4,0.1,0.5,0.3c0.1,0.1,0.2,0.3,0.2,0.5c-0.1,0.5-0.2,1-0.5,1.4c0,0.1-0.1,0.2-0.1,0.2c-0.1,0.2-0.3,0.4-0.4,0.5
    c-0.6,0.6-1.4,1-2.2,1.1C15.7,20.9,13.8,21,12,21c-1.8,0-3.7-0.1-5.5-0.3c-0.8-0.1-1.6-0.5-2.2-1.1c-0.6-0.6-1-1.4-1-2.2
    C3.1,15.5,3,13.7,3,12c0-1.7,0.1-3.5,0.3-5.3c0.1-0.8,0.4-1.6,1-2.3c0.6-0.6,1.4-1,2.2-1.1C8.3,3.1,10.2,3,12,3z M17.9,8.6l2.9,2.9
    c0.1,0.1,0.2,0.3,0.2,0.5s-0.1,0.4-0.2,0.5l-2.9,2.9c-0.1,0.1-0.3,0.2-0.5,0.2c-0.3,0-0.5-0.2-0.6-0.4c-0.1-0.3,0-0.6,0.2-0.8
    l1.6-1.6l-9.2,0c-0.4,0-0.7-0.3-0.7-0.7s0.3-0.7,0.7-0.7l9.3,0l-1.8-1.8c-0.3-0.3-0.3-0.7,0-1C17.2,8.3,17.6,8.3,17.9,8.6z"/>
</svg>
